<?xml version="1.0" standalone="no"?>
<!DOCTYPE svg PUBLIC "-//W3C//DTD SVG 20010904//EN"
 "http://www.w3.org/TR/2001/REC-SVG-20010904/DTD/svg10.dtd">
<svg version="1.0" xmlns="http://www.w3.org/2000/svg"
 width="1556.000000pt" height="787.000000pt" viewBox="0 0 1556.000000 787.000000"
 preserveAspectRatio="xMidYMid meet">

<g transform="translate(0.000000,787.000000) scale(0.100000,-0.100000)"
fill="#000000" stroke="none">
<path d="M0 4855 l0 -3015 1360 0 1360 0 0 384 0 383 25 -5 c31 -5 55 13 55
42 0 30 -18 46 -52 46 -21 0 -28 5 -28 19 0 14 6 17 25 13 31 -5 55 13 55 43
0 30 -24 48 -55 43 -19 -4 -25 -1 -25 12 0 13 6 16 23 13 27 -5 57 19 57 45 0
30 -17 45 -49 44 -24 0 -31 4 -31 18 0 13 5 17 19 13 28 -7 61 14 61 40 0 31
-18 47 -52 47 -21 0 -28 5 -28 20 0 15 7 20 28 20 34 0 52 16 52 47 0 26 -33
47 -61 40 -14 -4 -19 0 -19 13 0 14 7 18 31 18 32 -1 49 14 49 44 0 26 -30 50
-57 45 -15 -3 -23 1 -23 9 0 9 11 14 28 14 34 0 52 16 52 46 0 29 -24 47 -55
42 -19 -4 -25 -1 -25 13 0 14 7 19 28 19 34 0 52 16 52 47 0 26 -33 47 -61 40
-13 -4 -19 0 -19 13 0 13 6 16 25 12 31 -5 55 13 55 43 0 30 -24 48 -55 43
-21 -4 -25 -1 -25 19 0 20 4 22 24 17 27 -6 56 17 56 46 0 29 -29 52 -56 46
l-24 -6 0 370 c0 364 0 371 20 365 31 -10 60 12 60 45 0 33 -29 55 -60 45 -20
-6 -20 0 -20 247 l0 254 35 -4 c29 -4 36 0 43 19 18 47 -12 79 -58 64 -16 -5
-20 -2 -20 17 0 21 4 24 34 20 27 -3 37 0 46 18 9 17 8 26 -5 47 -14 20 -22
24 -46 19 -24 -5 -29 -2 -29 14 0 13 5 18 15 14 24 -10 62 4 67 24 3 10 1 28
-4 41 -7 19 -14 23 -43 19 -30 -3 -35 -1 -35 17 0 16 6 20 36 20 42 0 57 24
43 64 -8 19 -15 23 -44 19 -31 -4 -35 -1 -35 19 0 20 4 22 29 17 55 -11 79 66
27 86 -12 4 -29 4 -38 -2 -15 -7 -18 -4 -18 16 0 23 3 25 29 20 24 -5 32 -1
46 19 13 21 14 30 5 47 -9 18 -19 21 -46 18 -29 -3 -34 -1 -34 17 0 16 6 20
36 20 42 0 57 24 43 64 -8 19 -15 23 -44 19 -30 -3 -35 -1 -35 17 0 18 5 20
35 17 29 -4 36 0 43 19 5 13 7 31 4 41 -5 20 -43 34 -67 24 -10 -4 -15 1 -15
14 0 16 5 19 29 14 24 -5 32 -1 46 19 13 21 14 30 5 47 -9 18 -19 21 -46 18
-30 -4 -34 -1 -34 20 0 19 4 22 20 17 46 -15 81 25 59 68 -8 14 -19 18 -45 15
-32 -4 -34 -2 -34 24 0 26 2 28 20 18 43 -23 82 25 54 67 -13 20 -21 24 -45
19 -26 -5 -29 -3 -29 20 0 22 2 24 15 14 32 -27 86 21 65 59 -13 25 -47 36
-65 21 -12 -10 -15 -9 -15 9 0 17 4 20 29 15 24 -5 32 -1 46 19 13 21 14 30 5
47 -9 18 -19 21 -46 18 -30 -4 -34 -1 -34 19 0 20 4 22 29 17 24 -5 32 -1 46
19 13 21 14 30 5 47 -9 18 -19 21 -46 18 -30 -4 -34 -1 -34 19 0 21 3 22 20
13 43 -23 82 25 54 67 -13 20 -21 24 -45 19 -26 -5 -29 -3 -29 20 0 22 2 24
15 14 32 -27 86 21 65 59 -13 25 -47 36 -65 21 -13 -10 -15 -8 -15 17 0 27 2
29 35 25 29 -4 36 0 43 19 5 13 7 31 4 41 -5 20 -43 34 -67 24 -11 -4 -15 1
-15 17 0 20 4 22 34 19 26 -3 37 1 45 15 22 43 -13 83 -59 68 -16 -5 -20 -2
-20 14 0 14 5 19 15 15 24 -10 62 4 67 24 3 10 1 28 -4 41 -7 19 -14 23 -43
19 -31 -4 -35 -1 -35 19 0 20 4 22 29 17 24 -5 32 -1 45 19 28 42 -11 90 -54
67 -20 -11 -20 -8 -20 230 l0 240 -1360 0 -1360 0 0 -3015z"/>
<path d="M2880 7641 c0 -221 -1 -230 -20 -236 -33 -10 -44 -42 -25 -71 8 -13
22 -24 30 -24 12 0 15 -15 15 -69 0 -65 -2 -69 -24 -75 -14 -3 -27 -15 -31
-26 -8 -26 11 -60 35 -60 28 0 25 -27 -4 -34 -14 -3 -27 -15 -31 -26 -8 -26
11 -60 35 -60 26 0 26 -27 0 -35 -46 -15 -46 -75 0 -90 23 -7 27 -25 5 -25 -8
0 -22 -11 -30 -24 -19 -29 -8 -61 25 -71 26 -8 26 -25 0 -25 -24 0 -43 -34
-35 -60 4 -11 17 -23 31 -26 29 -7 32 -34 4 -34 -31 0 -45 -36 -25 -66 8 -13
23 -24 33 -24 12 -1 10 -5 -9 -15 -15 -8 -29 -22 -33 -30 -8 -22 9 -52 34 -60
23 -7 27 -25 5 -25 -8 0 -22 -11 -30 -24 -19 -29 -8 -61 25 -71 26 -8 26 -35
0 -35 -24 0 -43 -34 -35 -60 4 -11 17 -23 31 -26 29 -7 32 -34 4 -34 -24 0
-43 -34 -35 -60 4 -11 17 -23 31 -26 29 -7 32 -24 4 -24 -28 0 -46 -40 -31
-69 7 -11 21 -21 31 -21 11 0 20 -7 20 -15 0 -8 -9 -15 -20 -15 -28 0 -46 -40
-31 -69 7 -11 21 -21 31 -21 11 0 20 -7 20 -15 0 -8 -9 -15 -20 -15 -12 0 -25
-10 -32 -25 -9 -21 -8 -28 7 -45 10 -11 24 -20 32 -20 20 0 15 -21 -7 -27 -38
-10 -38 -76 1 -88 26 -8 24 -28 -3 -40 -17 -7 -23 -18 -23 -40 0 -22 6 -33 23
-40 12 -5 22 -14 22 -20 0 -6 -10 -15 -22 -20 -17 -7 -23 -18 -23 -40 0 -22 6
-33 23 -40 12 -5 22 -12 22 -15 0 -3 -10 -10 -22 -15 -17 -7 -23 -18 -23 -40
0 -22 6 -33 23 -40 l22 -10 0 -302 c0 -247 -2 -303 -13 -303 -19 0 -47 -33
-47 -54 0 -9 13 -25 30 -34 l30 -17 0 -302 c0 -295 -1 -303 -20 -303 -44 0
-47 -75 -4 -86 29 -7 31 -20 4 -29 -46 -15 -46 -75 0 -90 26 -8 26 -35 0 -35
-23 0 -40 -33 -32 -62 2 -10 15 -21 28 -24 26 -7 33 -24 9 -24 -8 0 -22 -11
-30 -24 -20 -30 -6 -66 25 -66 28 0 25 -27 -4 -34 -43 -11 -40 -86 4 -86 11 0
20 -4 20 -10 0 -5 -7 -10 -15 -10 -8 0 -22 -11 -30 -24 -19 -29 -8 -61 25 -71
23 -7 27 -25 5 -25 -8 0 -22 -11 -30 -24 -20 -30 -6 -66 25 -66 13 0 20 -7 20
-20 0 -13 -7 -20 -20 -20 -31 0 -45 -36 -25 -66 8 -13 22 -24 30 -24 22 0 18
-18 -5 -25 -33 -10 -44 -42 -25 -71 8 -13 22 -24 30 -24 8 0 15 -4 15 -10 0
-5 -9 -10 -20 -10 -23 0 -40 -33 -32 -62 2 -10 15 -21 28 -24 29 -7 32 -34 4
-34 -44 0 -47 -75 -4 -86 29 -7 32 -34 4 -34 -31 0 -45 -36 -25 -66 8 -13 22
-24 30 -24 8 0 15 -7 15 -15 0 -8 -9 -15 -20 -15 -31 0 -45 -36 -25 -66 8 -13
22 -24 30 -24 13 0 15 -146 15 -1180 l0 -1180 1760 0 1760 0 0 1769 c0 1747 0
1769 20 1774 39 10 34 87 -6 87 -8 0 -14 7 -14 15 0 8 7 15 15 15 24 0 39 43
26 69 -7 11 -18 21 -26 21 -8 0 -15 7 -15 15 0 8 7 15 15 15 24 0 39 43 26 69
-7 11 -18 21 -26 21 -22 0 -18 18 5 25 39 12 34 85 -6 85 -21 0 -17 27 6 33
39 10 34 87 -6 87 -21 0 -17 27 6 33 39 10 34 87 -6 87 -8 0 -14 7 -14 15 0 8
7 15 15 15 24 0 39 43 26 69 -7 11 -18 21 -26 21 -22 0 -18 18 5 25 39 12 34
85 -6 85 -21 0 -17 28 6 35 39 12 34 85 -6 85 -23 0 -16 34 9 45 39 17 30 72
-15 88 -9 3 -3 12 15 26 34 28 34 54 2 79 -28 22 -32 32 -11 32 40 0 45 73 6
85 -20 6 -20 16 -20 1014 l0 1008 25 11 c19 9 25 19 25 42 0 23 -6 33 -25 42
l-25 11 0 248 c0 239 1 248 20 254 39 12 34 85 -6 85 -21 0 -17 27 6 33 39 10
34 87 -6 87 -21 0 -17 18 6 25 25 8 37 50 20 70 -11 13 -229 15 -1786 15
l-1774 0 0 -229z"/>
<path d="M6560 6750 l0 -1120 -30 0 c-22 0 -33 -6 -41 -24 -16 -35 3 -66 41
-66 l30 0 0 -193 0 -193 -35 4 c-29 3 -36 0 -46 -21 -18 -40 4 -70 47 -65 30
4 34 1 34 -20 0 -21 -2 -22 -15 -12 -22 19 -64 4 -71 -25 -9 -36 13 -58 53
-53 29 4 33 1 33 -20 0 -19 -4 -22 -20 -17 -47 15 -82 -23 -60 -66 9 -17 19
-20 46 -17 31 4 34 2 34 -21 0 -19 -3 -22 -12 -13 -26 26 -78 -2 -78 -41 0
-27 44 -51 69 -37 19 10 21 8 21 -20 0 -28 -2 -29 -20 -18 -14 9 -25 10 -37 2
-52 -32 -39 -79 21 -79 32 0 36 -3 36 -25 0 -24 -3 -26 -34 -22 -27 3 -37 0
-46 -17 -22 -43 13 -81 60 -66 16 5 20 2 20 -17 0 -21 -4 -24 -34 -20 -27 3
-37 0 -46 -17 -6 -12 -8 -31 -5 -41 8 -25 50 -37 70 -20 13 10 15 9 15 -12 0
-22 -4 -24 -35 -20 -29 3 -36 0 -46 -21 -18 -40 4 -70 47 -65 29 3 34 1 34
-17 0 -18 -5 -20 -35 -17 -29 3 -36 0 -46 -21 -18 -40 4 -70 47 -65 29 3 34 1
34 -17 0 -18 -5 -20 -34 -17 -27 3 -37 0 -46 -17 -22 -43 13 -81 60 -66 16 5
20 2 20 -17 0 -21 -4 -24 -34 -20 -27 3 -37 0 -46 -17 -22 -43 13 -81 60 -66
15 5 20 2 20 -12 0 -16 -6 -18 -35 -15 -29 3 -36 0 -46 -21 -18 -40 4 -70 47
-65 29 3 34 1 34 -17 0 -18 -5 -20 -35 -17 -29 3 -36 0 -46 -21 -18 -40 4 -70
47 -65 29 3 34 1 34 -17 0 -18 -5 -20 -34 -17 -27 3 -37 0 -46 -17 -22 -43 13
-81 60 -66 20 6 20 2 20 -1769 l0 -1776 1760 0 1760 0 0 2184 c0 1446 3 2187
10 2191 6 3 10 17 10 30 0 13 -4 27 -10 30 -5 3 -10 17 -10 30 0 13 5 27 10
30 6 3 10 17 10 30 0 13 -4 27 -10 30 -5 3 -10 17 -10 30 0 13 5 27 10 30 6 3
10 17 10 30 0 13 -4 27 -10 30 -14 8 -13 41 2 65 10 16 10 24 0 40 -15 25 -16
62 0 78 9 9 8 21 -2 52 -11 34 -11 44 0 66 11 20 12 29 2 44 -15 25 -15 55 0
80 10 15 9 24 -2 45 -11 21 -11 32 -2 58 9 25 9 40 0 64 -9 25 -9 37 1 56 11
20 11 31 0 60 -11 30 -10 41 1 62 11 21 12 30 2 45 -7 11 -12 29 -12 40 0 11
5 29 12 40 10 15 9 24 -2 45 -11 21 -11 32 -2 58 9 25 9 40 0 64 -9 25 -9 37
1 56 11 20 11 31 0 60 -10 29 -10 42 -1 63 10 20 10 33 0 60 -9 26 -9 39 1 60
9 22 9 34 0 57 -10 24 -9 33 4 56 16 27 13 71 -4 71 -12 0 -11 37 1 59 6 12 5
29 -2 49 -9 23 -9 37 0 56 8 18 8 32 -1 55 -9 26 -8 36 6 61 17 29 17 31 0 60
-14 25 -15 34 -5 50 15 25 15 63 0 78 -10 10 -10 17 0 32 15 25 15 55 0 80
-10 16 -10 24 0 40 6 11 12 29 12 40 0 11 -6 29 -12 40 -10 16 -10 24 0 40 6
11 12 29 12 40 0 11 -6 29 -12 40 -10 16 -10 24 0 40 15 25 15 55 0 80 -10 16
-10 24 0 40 15 25 16 62 0 78 -10 10 -10 17 0 32 15 24 16 66 2 75 -6 4 -10
97 -10 246 l0 239 -1760 0 -1760 0 0 -1120z"/>
<path d="M10240 3935 l0 -3935 1760 0 1760 0 0 1848 c1 1259 4 1841 11 1830 6
-11 22 -18 40 -18 37 0 58 35 40 69 -15 26 -65 29 -80 3 -7 -11 -10 644 -11
2061 l0 2077 -1760 0 -1760 0 0 -3935z"/>
<path d="M13920 7583 c0 -196 -4 -297 -12 -319 -9 -27 -9 -38 2 -58 10 -21 11
-31 0 -56 -10 -25 -10 -35 0 -55 11 -21 11 -32 0 -65 -10 -31 -11 -43 -2 -52
7 -7 12 -24 12 -38 0 -14 -5 -31 -12 -38 -9 -9 -9 -20 1 -49 9 -29 11 -159 8
-528 -3 -269 -5 -497 -5 -505 0 -8 2 -555 4 -1214 3 -806 1 -1203 -6 -1210
-14 -14 -13 -59 2 -74 9 -9 9 -15 0 -24 -15 -15 -16 -64 -2 -73 6 -4 10 -167
10 -455 0 -288 -4 -451 -10 -455 -14 -8 -13 -48 2 -63 9 -9 8 -21 -2 -52 -11
-34 -11 -44 0 -66 11 -20 12 -29 2 -44 -15 -25 -15 -55 0 -80 10 -15 9 -24 -2
-45 -11 -21 -12 -32 -1 -61 10 -26 10 -39 2 -47 -14 -14 -14 -54 -1 -62 6 -3
10 -17 10 -30 0 -13 -4 -27 -10 -30 -5 -3 -10 -17 -10 -30 0 -13 5 -27 10 -30
6 -3 10 -17 10 -30 0 -13 -4 -27 -10 -30 -14 -8 -13 -41 2 -65 10 -16 10 -24
0 -40 -15 -25 -15 -55 0 -80 10 -15 9 -24 -2 -44 -11 -22 -11 -32 0 -67 11
-32 11 -45 2 -60 -15 -23 -16 -56 -2 -64 6 -4 10 -215 10 -601 l0 -594 800 0
800 0 0 474 c0 465 0 474 20 479 15 4 20 14 20 37 0 23 -5 33 -20 37 -20 5
-20 14 -20 3424 l0 3419 -800 0 -800 0 0 -287z"/>
<path d="M10141 7386 c-7 -8 -11 -27 -9 -43 2 -22 9 -29 31 -31 50 -6 75 38
41 72 -19 20 -48 20 -63 2z"/>
<path d="M10148 7279 c-25 -14 -24 -65 1 -79 11 -5 24 -10 30 -10 16 0 41 30
41 50 0 21 -25 50 -43 50 -7 0 -20 -5 -29 -11z"/>
<path d="M13802 7274 c-12 -8 -22 -23 -22 -33 0 -20 30 -51 48 -51 15 0 52 36
52 50 0 12 -37 50 -48 50 -4 0 -18 -7 -30 -16z"/>
<path d="M10136 7154 c-34 -34 -9 -78 41 -72 22 2 29 9 31 31 6 50 -38 75 -72
41z"/>
<path d="M13796 7154 c-34 -34 -9 -78 41 -72 22 2 29 9 31 31 6 50 -38 75 -72
41z"/>
<path d="M10136 7034 c-34 -34 -9 -78 41 -72 22 2 29 9 31 31 6 50 -38 75 -72
41z"/>
<path d="M13796 7034 c-34 -34 -9 -78 41 -72 22 2 29 9 31 31 6 50 -38 75 -72
41z"/>
<path d="M10140 6912 c-18 -14 -21 -25 -16 -45 7 -31 48 -46 71 -27 22 18 19
67 -4 80 -25 13 -25 13 -51 -8z"/>
<path d="M13800 6912 c-18 -14 -21 -25 -16 -45 7 -31 48 -46 71 -27 22 18 19
67 -4 80 -25 13 -25 13 -51 -8z"/>
<path d="M10137 6792 c-22 -25 -21 -45 3 -67 17 -15 24 -16 45 -7 44 20 27 92
-23 92 -5 0 -16 -8 -25 -18z"/>
<path d="M10130 6675 c-20 -25 -1 -69 31 -73 32 -4 51 18 47 55 -2 23 -8 29
-34 31 -19 2 -36 -3 -44 -13z"/>
<path d="M10131 6556 c-20 -23 -5 -65 24 -72 35 -9 57 12 53 50 -3 27 -7 31
-34 34 -19 2 -36 -3 -43 -12z"/>
<path d="M10134 6436 c-3 -8 -4 -25 -2 -38 2 -19 9 -23 37 -23 66 0 68 67 2
73 -21 2 -33 -2 -37 -12z"/>
<path d="M10142 6328 c-39 -39 17 -100 58 -63 34 31 20 75 -25 75 -12 0 -26
-5 -33 -12z"/>
<path d="M10141 6216 c-7 -8 -11 -27 -9 -43 6 -51 88 -41 88 11 0 42 -53 63
-79 32z"/>
<path d="M13790 6216 c-15 -19 -9 -56 11 -69 9 -5 28 -7 42 -3 23 5 27 12 27
40 0 34 -13 46 -50 46 -9 0 -23 -7 -30 -14z"/>
<path d="M10131 6096 c-16 -19 -7 -64 14 -73 8 -3 27 -2 41 1 22 6 25 11 22
44 -3 33 -6 37 -34 40 -19 2 -36 -3 -43 -12z"/>
<path d="M13792 6098 c-28 -28 -7 -78 34 -78 29 0 46 23 42 57 -2 23 -8 29
-33 31 -17 2 -36 -3 -43 -10z"/>
<path d="M10131 5976 c-16 -19 -7 -64 14 -73 8 -3 27 -2 41 1 22 6 25 11 22
44 -3 33 -6 37 -34 40 -19 2 -36 -3 -43 -12z"/>
<path d="M10136 5854 c-34 -34 -9 -78 41 -72 22 2 29 9 31 31 6 50 -38 75 -72
41z"/>
<path d="M10128 5724 c-17 -36 0 -59 43 -59 30 0 34 3 37 28 7 57 -57 81 -80
31z"/>
<path d="M10137 5622 c-22 -25 -21 -45 3 -67 17 -15 24 -16 45 -7 44 20 27 92
-23 92 -5 0 -16 -8 -25 -18z"/>
<path d="M10136 5504 c-23 -23 -20 -51 8 -69 33 -22 66 -5 66 33 0 49 -42 69
-74 36z"/>
<path d="M10136 5384 c-34 -34 -9 -78 41 -72 22 2 29 9 31 31 6 50 -38 75 -72
41z"/>
<path d="M13796 5384 c-34 -34 -9 -78 41 -72 22 2 29 9 31 31 6 50 -38 75 -72
41z"/>
<path d="M10136 5264 c-34 -34 -9 -78 41 -72 22 2 29 9 31 31 6 50 -38 75 -72
41z"/>
<path d="M10135 5150 c-36 -40 7 -96 55 -70 27 14 27 65 1 80 -27 14 -35 13
-56 -10z"/>
<path d="M10136 5034 c-23 -23 -20 -51 8 -69 33 -22 66 -5 66 33 0 49 -42 69
-74 36z"/>
<path d="M10136 4914 c-34 -34 -9 -78 41 -72 22 2 29 9 31 31 6 50 -38 75 -72
41z"/>
<path d="M10140 4792 c-18 -14 -21 -25 -16 -45 7 -31 48 -46 71 -27 22 18 19
67 -4 80 -25 13 -25 13 -51 -8z"/>
<path d="M13796 2444 c-33 -32 -13 -74 36 -74 38 0 55 33 33 66 -18 28 -46 31
-69 8z"/>
<path d="M13790 2310 c-14 -27 -4 -57 21 -65 46 -15 81 24 59 65 -15 27 -65
27 -80 0z"/>
<path d="M13792 2198 c-27 -27 -1 -78 38 -78 29 0 54 43 40 69 -12 24 -58 29
-78 9z"/>
<path d="M13802 2084 c-27 -18 -28 -45 -4 -67 25 -23 48 -21 66 5 20 29 20 34
-4 58 -24 24 -29 24 -58 4z"/>
<path d="M13797 1962 c-24 -26 -21 -49 7 -67 45 -30 91 16 61 61 -19 29 -46
31 -68 6z"/>
<path d="M13789 1849 c-26 -50 35 -93 75 -53 19 18 20 28 6 55 -15 27 -66 26
-81 -2z"/>
<path d="M13790 1730 c-14 -27 -4 -57 21 -65 46 -15 81 24 59 65 -15 27 -65
27 -80 0z"/>
<path d="M13796 1614 c-19 -18 -20 -28 -6 -55 21 -39 90 -16 90 30 0 16 -30
41 -50 41 -10 0 -26 -7 -34 -16z"/>
<path d="M13802 1504 c-27 -18 -28 -45 -4 -67 25 -23 48 -21 66 5 20 29 20 34
-4 58 -24 24 -29 24 -58 4z"/>
<path d="M13797 1382 c-24 -26 -21 -49 7 -67 45 -30 91 16 61 61 -19 29 -46
31 -68 6z"/>
</g>
</svg>
